<svg width="35" height="35" viewBox="0 0 35 35" fill="none" xmlns="http://www.w3.org/2000/svg">
<rect width="35" height="35" fill="white"/>
<path d="M18 31.7461C25.5918 31.7461 31.7461 25.5918 31.7461 18C31.7461 10.4082 25.5918 4.25391 18 4.25391C10.4082 4.25391 4.25391 10.4082 4.25391 18C4.25391 25.5918 10.4082 31.7461 18 31.7461Z" fill="#E74C3C"/>
<path d="M15.6769 14.9274H3.71176L9.6943 8.15839L15.6769 1.38934L21.6594 8.15839L27.642 14.9274H15.6769Z" fill="#4B772D"/>
<path d="M27.2549 14.9274H3.71176L5.19674 13.3094H25.9855L27.2549 14.9274Z" fill="#8BC34A"/>
<path d="M14.8666 2.818L24.3011 13.3094C24.3011 13.3094 26.4047 13.5275 25.503 12.5072C24.6013 11.4869 15.6769 1.38934 15.6769 1.38934L14.8666 2.818Z" fill="#8BC34A"/>
<path d="M6.46198 11.7542V4.82334H9.83701V7.97199" fill="#4B772D"/>
<path d="M9.48799 8.72212L8.48718 10.0202V4.97661H9.48799V8.72212Z" fill="#8BC34A"/>
<path d="M24.8918 14.9274H6.46198V28.5741H24.8918V14.9274Z" fill="#D3E6F8"/>
<path d="M24.8918 15.0562H23.0827V28.5741H24.8918V15.0562Z" fill="#7BABF1"/>
<path d="M8.48718 28.5741V19.5254H14.0714V28.5741" fill="#4B772D"/>
<path d="M22.8667 19.5254H15.9454V23.9386H22.8667V19.5254Z" fill="white"/>
<path d="M24.8918 28.5741H6.46198V30.1093H24.8918V28.5741Z" fill="#7BABF1"/>
<path d="M24.8918 28.9634H6.462C6.24698 28.9634 6.07266 28.7891 6.07266 28.5741V14.9274C6.07266 14.7124 6.24698 14.538 6.462 14.538H24.8918C25.1068 14.538 25.2811 14.7124 25.2811 14.9274V28.5741C25.2811 28.7891 25.1068 28.9634 24.8918 28.9634ZM6.85134 28.1848H24.5025V15.3167H6.85134V28.1848Z" fill="#4C4372"/>
<path d="M27.642 15.3167H3.71177C3.55864 15.3167 3.41979 15.2269 3.35683 15.0874C3.29395 14.9478 3.31865 14.7843 3.42005 14.6696L15.3852 1.13148C15.4591 1.04788 15.5653 1 15.6769 1C15.7885 1 15.8947 1.04788 15.9686 1.13148L27.9337 14.6695C28.0351 14.7843 28.0598 14.9478 27.9969 15.0874C27.934 15.2269 27.7951 15.3167 27.642 15.3167ZM4.57545 14.538H26.7783L15.6769 1.97717L4.57545 14.538Z" fill="#4C4372"/>
<path d="M14.0714 28.9634C13.8563 28.9634 13.682 28.7891 13.682 28.5741V19.9146H8.87646V28.5741C8.87646 28.7891 8.70214 28.9634 8.48712 28.9634C8.27209 28.9634 8.09778 28.7891 8.09778 28.5741V19.5254C8.09778 19.3103 8.27209 19.136 8.48712 19.136H14.0714C14.2864 19.136 14.4607 19.3103 14.4607 19.5254V28.5741C14.4607 28.7891 14.2864 28.9634 14.0714 28.9634Z" fill="#4C4372"/>
<path d="M24.8918 30.4987H6.462C6.24698 30.4987 6.07266 30.3243 6.07266 30.1093V28.5741C6.07266 28.3591 6.24698 28.1848 6.462 28.1848H24.8918C25.1068 28.1848 25.2811 28.3591 25.2811 28.5741V30.1093C25.2811 30.3243 25.1068 30.4987 24.8918 30.4987ZM6.85134 29.72H24.5025V28.9634H6.85134V29.72Z" fill="#4C4372"/>
<path d="M25.9855 13.6987H5.19674C4.98172 13.6987 4.8074 13.5244 4.8074 13.3093C4.8074 13.0943 4.98172 12.92 5.19674 12.92H25.9855C26.2005 12.92 26.3748 13.0943 26.3748 13.3093C26.3748 13.5244 26.2005 13.6987 25.9855 13.6987Z" fill="#4C4372"/>
<path d="M6.462 12.1434C6.24698 12.1434 6.07266 11.9691 6.07266 11.7541V4.82334C6.07266 4.60832 6.24698 4.434 6.462 4.434H9.83703C10.0521 4.434 10.2264 4.60832 10.2264 4.82334V7.97199C10.2264 8.18702 10.0521 8.36133 9.83703 8.36133C9.62201 8.36133 9.44769 8.18702 9.44769 7.97199V5.21261H6.85134V11.7541C6.85134 11.9691 6.67703 12.1434 6.462 12.1434Z" fill="#4C4372"/>
<path d="M19.11 19.8456H18.5294V23.5911H19.11V19.8456Z" fill="#D3E6F8"/>
<path d="M22.5377 19.8456H21.9571V23.5911H22.5377V19.8456Z" fill="#D3E6F8"/>
<path d="M22.8667 24.3279H15.9454C15.7304 24.3279 15.5561 24.1536 15.5561 23.9386V19.5254C15.5561 19.3103 15.7304 19.136 15.9454 19.136H22.8667C23.0817 19.136 23.256 19.3103 23.256 19.5254V23.9386C23.256 24.1536 23.0816 24.3279 22.8667 24.3279ZM16.3347 23.5492H22.4774V19.9146H16.3347V23.5492Z" fill="#4C4372"/>
<path d="M19.406 24.3279C19.191 24.3279 19.0167 24.1536 19.0167 23.9386V19.5254C19.0167 19.3103 19.191 19.136 19.406 19.136C19.6211 19.136 19.7954 19.3103 19.7954 19.5254V23.9386C19.7954 24.1536 19.6211 24.3279 19.406 24.3279Z" fill="#4C4372"/>
<path d="M24.2713 25.5139L23.1519 26.6403L26.1046 29.5746L27.224 28.4482L24.2713 25.5139Z" fill="#D3E6F8"/>
<path d="M24.5956 26.2365L24.2757 26.5584L26.4099 28.6795L26.7298 28.3576L24.5956 26.2365Z" fill="#7BABF1"/>
<path d="M26.1049 29.9623C26.0021 29.9623 25.9034 29.9216 25.8305 29.8491L22.8777 26.9149C22.8044 26.8421 22.7631 26.7432 22.7628 26.64C22.7625 26.5367 22.8032 26.4376 22.8759 26.3643L23.9953 25.2379C24.1468 25.0854 24.3933 25.0846 24.5459 25.2362L27.4987 28.1704C27.6512 28.3219 27.652 28.5684 27.5004 28.721L26.3811 29.8474C26.3083 29.9207 26.2094 29.962 26.1061 29.9623C26.1057 29.9623 26.1053 29.9623 26.1049 29.9623ZM23.7027 26.637L26.1032 29.0224L26.6737 28.4482L24.2732 26.0628L23.7027 26.637Z" fill="#4C4372"/>
<path d="M14.6199 17.0408C12.0021 19.6751 12.0155 23.9328 14.6499 26.5505C17.2842 29.1683 21.5419 29.1549 24.1597 26.5205C26.7774 23.8862 26.764 19.6285 24.1296 17.0107C21.4952 14.393 17.2376 14.4064 14.6199 17.0408ZM23.1009 25.4684C21.0641 27.5181 17.7515 27.5285 15.702 25.4918C13.6523 23.4551 13.6419 20.1425 15.6786 18.0929C17.7153 16.0433 21.0279 16.0328 23.0775 18.0695C25.1271 20.1062 25.1376 23.4188 23.1009 25.4684Z" fill="#7BABF1"/>
<path d="M19.3895 28.8911C17.5751 28.8911 15.761 28.2036 14.3754 26.8267C11.593 24.0618 11.5788 19.5487 14.3437 16.7663C17.1085 13.9839 21.6216 13.9696 24.404 16.7346C25.7519 18.0739 26.4975 19.858 26.5035 21.7581C26.5095 23.6583 25.7752 25.447 24.4358 26.7948C23.0477 28.1917 21.2185 28.8911 19.3895 28.8911ZM19.3899 15.4485C17.7609 15.4485 16.1322 16.0711 14.896 17.3152C12.4337 19.793 12.4464 23.8121 14.9243 26.2744C17.4021 28.7366 21.4213 28.7239 23.8835 26.2461C25.0763 25.0458 25.7302 23.4528 25.7249 21.7606C25.7195 20.0684 25.0556 18.4796 23.8552 17.2869C22.6214 16.0609 21.0054 15.4485 19.3899 15.4485Z" fill="#4C4372"/>
<path d="M19.3896 27.3992C17.9559 27.3992 16.5224 26.8559 15.4276 25.7679C13.2289 23.5832 13.2177 20.017 15.4025 17.8184C16.4608 16.7534 17.8705 16.1642 19.372 16.1595C19.3781 16.1594 19.3843 16.1594 19.3903 16.1594C20.885 16.1594 22.2913 16.7392 23.352 17.7933C25.5506 19.9781 25.5618 23.5443 23.3771 25.7428C22.2802 26.8466 20.8348 27.3992 19.3896 27.3992ZM19.3902 16.9381C19.3848 16.9381 19.3797 16.9381 19.3744 16.9381C18.081 16.9422 16.8665 17.4497 15.9547 18.3672C15.0429 19.2848 14.5431 20.5024 14.5472 21.7959C14.5513 23.0894 15.0587 24.3039 15.9763 25.2156C16.89 26.1236 18.1017 26.6232 19.3892 26.6232C19.3945 26.6232 19.3997 26.6232 19.405 26.6232C20.6985 26.6191 21.9129 26.1116 22.8247 25.1941C23.7365 24.2765 24.2363 23.0589 24.2322 21.7654C24.2282 20.4719 23.7206 19.2574 22.8031 18.3456C21.8894 17.4376 20.6778 16.9381 19.3902 16.9381Z" fill="#4C4372"/>
<path d="M26.8623 28.3526L26.0087 29.2116C25.5564 29.6667 25.5588 30.4024 26.0139 30.8547L29.4546 34.2737C29.9098 34.726 30.6454 34.7237 31.0977 34.2685L31.9513 33.4096C32.4036 32.9544 32.4013 32.2188 31.9461 31.7665L28.5054 28.3474C28.0502 27.8951 27.3146 27.8975 26.8623 28.3526Z" fill="#4B772D"/>
<path d="M27.3301 28.0658L26.887 28.5117L31.792 33.3859L32.2351 32.9399C32.3612 32.5389 32.2649 32.0832 31.9461 31.7665L28.5054 28.3474C28.1866 28.0307 27.7303 27.9372 27.3301 28.0658Z" fill="#8BC34A"/>
<path d="M30.2735 35C29.8778 35 29.4823 34.8501 29.1802 34.5498L25.7395 31.1308C25.4455 30.8387 25.283 30.4497 25.2817 30.0353C25.2803 29.621 25.4405 29.231 25.7326 28.937L26.5861 28.0781C26.8781 27.7842 27.2671 27.6217 27.6814 27.6203C27.6831 27.6203 27.6848 27.6203 27.6865 27.6203C28.0989 27.6203 28.487 27.7803 28.7797 28.0712L32.2204 31.4903C32.8271 32.0931 32.8303 33.0772 32.2274 33.684L31.3738 34.5429C31.0712 34.8475 30.6723 35 30.2735 35ZM27.1384 28.627L26.2849 29.486C26.1395 29.6323 26.0597 29.8266 26.0604 30.0329C26.0611 30.2393 26.142 30.433 26.2884 30.5785L29.7291 33.9975C30.0312 34.2978 30.5213 34.2962 30.8216 33.9941L31.6752 33.1351C31.9754 32.833 31.9739 32.3429 31.6717 32.0426L28.231 28.6235C28.0852 28.4787 27.892 28.399 27.6865 28.399C27.6856 28.399 27.6848 28.399 27.684 28.399C27.4776 28.3997 27.2839 28.4807 27.1384 28.627Z" fill="#4C4372"/>
</svg>
