<svg width="20" height="21" viewBox="0 0 20 21" fill="none" xmlns="http://www.w3.org/2000/svg">
<path d="M12.835 17.7061V11.9011H14.7792L15.07 9.64439H12.835V8.20439C12.835 7.55105 13.0167 7.10522 13.9533 7.10522H15.1483V5.08689C14.5698 5.02551 13.9884 4.99574 13.4067 4.99772C11.6842 4.99772 10.505 6.04939 10.505 7.98105V9.64439H8.55667V11.9011H10.505V17.7061H3.33333C3.11232 17.7061 2.90036 17.6183 2.74408 17.462C2.5878 17.3057 2.5 17.0937 2.5 16.8727V3.53939C2.5 3.31837 2.5878 3.10641 2.74408 2.95013C2.90036 2.79385 3.11232 2.70605 3.33333 2.70605H16.6667C16.8877 2.70605 17.0996 2.79385 17.2559 2.95013C17.4122 3.10641 17.5 3.31837 17.5 3.53939V16.8727C17.5 17.0937 17.4122 17.3057 17.2559 17.462C17.0996 17.6183 16.8877 17.7061 16.6667 17.7061H12.835Z" fill="white"/>
</svg>
