<svg width="35" height="35" viewBox="0 0 35 35" fill="none" xmlns="http://www.w3.org/2000/svg">
<g clip-path="url(#clip0_1_10)">
<rect width="35" height="35" fill="white"/>
<g clip-path="url(#clip1_1_10)">
<path d="M10.1445 14.0469H18.5039C18.6797 14.457 18.8555 14.8867 19.0312 15.2969H10.4961L9.57812 16.8398L3.75781 26.5469H30.3203L23.8359 15.2969H19.5977C19.7734 14.8867 19.9492 14.457 20.125 14.0469H24.1875H24.5391L24.7148 14.3594L31.9219 26.8594L32.4688 27.7969H31.3945H2.64453H1.55078L2.11719 26.8594L9.61719 14.3594L9.79297 14.0469H10.1445Z" fill="#4D4D4D" stroke="#424242" stroke-width="2.08347"/>
<path fill-rule="evenodd" clip-rule="evenodd" d="M10.4961 19.4375L16.082 18.1094C15.6328 17.1328 15.2422 16.293 14.8125 15.2969H10.4766L9.55859 16.8203L10.4766 19.4375H10.4961Z" fill="#8BC34A"/>
<path fill-rule="evenodd" clip-rule="evenodd" d="M16.6289 19.2422L10.9258 20.6094L12.3906 24.75L27.4883 21.6055L23.8359 15.2773H22.4883C21.9805 16.4688 21.4727 17.5625 20.9258 18.7344C20.5547 19.5352 20.3008 20.1602 19.9688 20.9805C19.6172 21.8398 19.2656 22.7188 18.6797 22.6992C18.0547 22.6602 17.7812 22.0156 17.4297 21.1562C17.1758 20.5508 16.8828 19.8477 16.6289 19.2422Z" fill="#8BC34A"/>
<path fill-rule="evenodd" clip-rule="evenodd" d="M11.6875 26.5469L8.73828 18.207L3.73828 26.5469H11.6875Z" fill="#8BC34A"/>
<path fill-rule="evenodd" clip-rule="evenodd" d="M28.1328 22.7578L12.8008 25.9609L12.9961 26.5469H30.3008L28.1328 22.7578Z" fill="#8BC34A"/>
<path fill-rule="evenodd" clip-rule="evenodd" d="M8.73828 18.207L11.6875 26.5469H13.0156L12.8008 25.9609L28.1328 22.7578L27.4688 21.625L12.3711 24.7695L10.9062 20.6289L16.6094 19.2617C16.5312 19.0664 16.4336 18.8711 16.3359 18.6562C15.8477 17.582 15.3008 16.4297 14.832 15.3164C15.2617 16.3125 15.6328 17.1328 16.1016 18.1289L10.5156 19.457L9.59766 16.8398L8.77734 18.2266L8.73828 18.207Z" fill="#F1F8E9"/>
<path fill-rule="evenodd" clip-rule="evenodd" d="M18.6602 4.20312C20.2617 4.20312 21.707 4.84766 22.7422 5.90234C23.7969 6.95703 24.4414 8.40234 24.4414 9.98438C24.4414 10.707 23.9727 12.1133 23.3086 13.7344C22.6836 15.2969 21.8438 17.1133 21.1016 18.7344C20.6133 19.7695 20.2812 20.6289 20.0078 21.2539C19.5391 22.4258 19.2852 23.0117 18.6797 23.0312C18.0547 23.0508 17.8008 22.4453 17.3125 21.2344C17.0586 20.6289 16.7266 19.8281 16.2578 18.793C15.4961 17.1523 14.6562 15.3164 14.0312 13.7539C13.3672 12.1133 12.8984 10.707 12.8984 9.96484C12.8984 8.36328 13.543 6.91797 14.5977 5.88281C15.6523 4.82812 17.0977 4.18359 18.6797 4.18359L18.6602 4.20312ZM18.6602 7.44531C19.2852 7.44531 19.8711 7.69922 20.2812 8.10938C20.6914 8.51953 20.9453 9.10547 20.9453 9.73047C20.9453 10.3555 20.6914 10.9414 20.2812 11.3516C19.8711 11.7617 19.2852 12.0156 18.6602 12.0156C18.0352 12.0156 17.4492 11.7617 17.0391 11.3516C16.6289 10.9414 16.375 10.3555 16.375 9.73047C16.375 9.10547 16.6289 8.51953 17.0391 8.10938C17.4492 7.69922 18.0352 7.44531 18.6602 7.44531Z" fill="#FF5252"/>
<path fill-rule="evenodd" clip-rule="evenodd" d="M18.6602 4.20312V7.44531C18.0352 7.44531 17.4492 7.69922 17.0391 8.10938C16.6289 8.51953 16.375 9.10547 16.375 9.73047C16.375 10.3555 16.6289 10.9414 17.0391 11.3516C17.4492 11.7617 18.0352 12.0156 18.6602 12.0156V23.0312C18.0547 23.0312 17.8008 22.4258 17.3125 21.2344C17.0586 20.6289 16.7266 19.8281 16.2578 18.793C15.4961 17.1523 14.6562 15.3164 14.0312 13.7539C13.3672 12.1133 12.8984 10.707 12.8984 9.96484C12.8984 8.36328 13.543 6.91797 14.5977 5.88281C15.6523 4.82812 17.0977 4.18359 18.6797 4.18359L18.6602 4.20312Z" fill="#F43C3C"/>
</g>
</g>
<defs>
<clipPath id="clip0_1_10">
<rect width="35" height="35" fill="white"/>
</clipPath>
<clipPath id="clip1_1_10">
<rect width="40" height="40" fill="white" transform="translate(-3 -4)"/>
</clipPath>
</defs>
</svg>
