<svg width="20" height="21" viewBox="0 0 20 21" fill="none" xmlns="http://www.w3.org/2000/svg">
<path d="M18.4702 4.91982C17.834 5.20123 17.1593 5.38604 16.4685 5.46815C17.1967 5.03268 17.7416 4.34733 18.0019 3.53982C17.3185 3.94648 16.5694 4.23148 15.7885 4.38565C15.264 3.82446 14.5688 3.45228 13.811 3.32697C13.0532 3.20165 12.2752 3.33022 11.5979 3.69269C10.9207 4.05516 10.3822 4.63122 10.0661 5.33131C9.75008 6.0314 9.67417 6.8163 9.85021 7.56398C8.46447 7.49453 7.10882 7.13442 5.87128 6.50704C4.63374 5.87965 3.54198 4.99902 2.66688 3.92232C2.35712 4.45436 2.19434 5.05917 2.19521 5.67481C2.19521 6.88315 2.81021 7.95065 3.74521 8.57565C3.19188 8.55823 2.65074 8.4088 2.16688 8.13982V8.18315C2.16704 8.9879 2.44552 9.76783 2.95508 10.3907C3.46465 11.0136 4.17394 11.441 4.96271 11.6006C4.44905 11.7398 3.91046 11.7604 3.38771 11.6606C3.6101 12.3533 4.04355 12.9591 4.62737 13.3932C5.21119 13.8273 5.91615 14.068 6.64354 14.0815C5.92061 14.6493 5.09286 15.069 4.20761 15.3166C3.32236 15.5643 2.39698 15.635 1.48438 15.5248C3.07746 16.5493 4.93196 17.0933 6.82604 17.0915C13.2369 17.0915 16.7427 11.7806 16.7427 7.17482C16.7427 7.02482 16.7385 6.87315 16.7319 6.72482C17.4143 6.23162 18.0032 5.62066 18.471 4.92065L18.4702 4.91982Z" fill="white"/>
</svg>
