<svg width="35" height="35" viewBox="0 0 35 35" fill="none" xmlns="http://www.w3.org/2000/svg">
<g clip-path="url(#clip0_1_9)">
<rect width="35" height="35" fill="white"/>
<path d="M22.4 6.1H8.80002C8.1741 6.1 7.66669 6.60741 7.66669 7.23333V31.0333C7.66669 31.6593 8.1741 32.1667 8.80002 32.1667H22.4C23.0259 32.1667 23.5334 31.6593 23.5334 31.0333V7.23333C23.5334 6.60741 23.0259 6.1 22.4 6.1Z" fill="#65B1FC"/>
<path d="M25.8 4.4V31.6C25.8 32.3514 25.5015 33.0721 24.9702 33.6035C24.4388 34.1348 23.7181 34.4333 22.9667 34.4333H8.23336C7.48191 34.4333 6.76124 34.1348 6.22989 33.6035C5.69854 33.0721 5.40002 32.3514 5.40002 31.6V4.4C5.40002 3.64855 5.69854 2.92788 6.22989 2.39653C6.76124 1.86518 7.48191 1.56667 8.23336 1.56667H22.9667C23.3388 1.56667 23.7072 1.63995 24.051 1.78234C24.3947 1.92473 24.7071 2.13343 24.9702 2.39653C25.2333 2.65963 25.442 2.97197 25.5843 3.31573C25.7267 3.65949 25.8 4.02792 25.8 4.4ZM23.5334 31.0333V7.23333C23.5325 6.93303 23.4128 6.64528 23.2004 6.43294C22.9881 6.22059 22.7003 6.1009 22.4 6.1H8.80002C8.49972 6.1009 8.21197 6.22059 7.99963 6.43294C7.78728 6.64528 7.66759 6.93303 7.66669 7.23333V31.0333C7.66759 31.3336 7.78728 31.6214 7.99963 31.8337C8.21197 32.0461 8.49972 32.1658 8.80002 32.1667H22.4C22.7003 32.1658 22.9881 32.0461 23.2004 31.8337C23.4128 31.6214 23.5325 31.3336 23.5334 31.0333Z" fill="#BEC3D2"/>
<path d="M15.7666 6.1H8.80002C8.49972 6.1009 8.21197 6.22059 7.99962 6.43294C7.78728 6.64528 7.66758 6.93303 7.66669 7.23333V11.7763C9.64905 9.02466 12.5036 7.02422 15.7666 6.1Z" fill="#87C7FF"/>
<path d="M23.5334 7.33647V7.23333C23.5325 6.93303 23.4128 6.64528 23.2004 6.43294C22.9881 6.22059 22.7003 6.1009 22.4 6.1H15.7666C12.5036 7.02422 9.64905 9.02466 7.66669 11.7763V19.7442C8.88277 16.3969 11.0152 13.4587 13.8206 11.2648C16.626 9.07099 19.9916 7.70978 23.5334 7.33647Z" fill="#A3D4FF"/>
<path d="M9.93334 8.93333C10.2463 8.93333 10.5 8.67963 10.5 8.36667C10.5 8.05371 10.2463 7.8 9.93334 7.8C9.62037 7.8 9.36667 8.05371 9.36667 8.36667C9.36667 8.67963 9.62037 8.93333 9.93334 8.93333Z" fill="#65B1FC"/>
<path d="M12.2 8.93333C12.513 8.93333 12.7667 8.67963 12.7667 8.36667C12.7667 8.05371 12.513 7.8 12.2 7.8C11.887 7.8 11.6333 8.05371 11.6333 8.36667C11.6333 8.67963 11.887 8.93333 12.2 8.93333Z" fill="#BFE1FF"/>
<path d="M14.4667 8.93333C14.7797 8.93333 15.0334 8.67963 15.0334 8.36667C15.0334 8.05371 14.7797 7.8 14.4667 7.8C14.1537 7.8 13.9 8.05371 13.9 8.36667C13.9 8.67963 14.1537 8.93333 14.4667 8.93333Z" fill="#BFE1FF"/>
<path d="M16.7334 8.93333C17.0463 8.93333 17.3 8.67963 17.3 8.36667C17.3 8.05371 17.0463 7.8 16.7334 7.8C16.4204 7.8 16.1667 8.05371 16.1667 8.36667C16.1667 8.67963 16.4204 8.93333 16.7334 8.93333Z" fill="#BFE1FF"/>
<path d="M19 8.93333C19.313 8.93333 19.5667 8.67963 19.5667 8.36667C19.5667 8.05371 19.313 7.8 19 7.8C18.6871 7.8 18.4333 8.05371 18.4333 8.36667C18.4333 8.67963 18.6871 8.93333 19 8.93333Z" fill="#4A98F7"/>
<path d="M15.6 10.6333C15.913 10.6333 16.1667 10.3796 16.1667 10.0667C16.1667 9.75371 15.913 9.5 15.6 9.5C15.2871 9.5 15.0334 9.75371 15.0334 10.0667C15.0334 10.3796 15.2871 10.6333 15.6 10.6333Z" fill="#4A98F7"/>
<path d="M13.3333 10.6333C13.6463 10.6333 13.9 10.3796 13.9 10.0667C13.9 9.75371 13.6463 9.5 13.3333 9.5C13.0204 9.5 12.7667 9.75371 12.7667 10.0667C12.7667 10.3796 13.0204 10.6333 13.3333 10.6333Z" fill="#BFE1FF"/>
<path d="M11.0667 10.6333C11.3796 10.6333 11.6333 10.3796 11.6333 10.0667C11.6333 9.75371 11.3796 9.5 11.0667 9.5C10.7537 9.5 10.5 9.75371 10.5 10.0667C10.5 10.3796 10.7537 10.6333 11.0667 10.6333Z" fill="#BFE1FF"/>
<path d="M9.93334 12.3333C10.2463 12.3333 10.5 12.0796 10.5 11.7667C10.5 11.4537 10.2463 11.2 9.93334 11.2C9.62037 11.2 9.36667 11.4537 9.36667 11.7667C9.36667 12.0796 9.62037 12.3333 9.93334 12.3333Z" fill="#BFE1FF"/>
<path d="M12.2 12.3333C12.513 12.3333 12.7667 12.0796 12.7667 11.7667C12.7667 11.4537 12.513 11.2 12.2 11.2C11.887 11.2 11.6333 11.4537 11.6333 11.7667C11.6333 12.0796 11.887 12.3333 12.2 12.3333Z" fill="#BFE1FF"/>
<path d="M14.4667 12.3333C14.7797 12.3333 15.0334 12.0796 15.0334 11.7667C15.0334 11.4537 14.7797 11.2 14.4667 11.2C14.1537 11.2 13.9 11.4537 13.9 11.7667C13.9 12.0796 14.1537 12.3333 14.4667 12.3333Z" fill="#4A98F7"/>
<path d="M13.3333 14.0333C13.6463 14.0333 13.9 13.7796 13.9 13.4667C13.9 13.1537 13.6463 12.9 13.3333 12.9C13.0204 12.9 12.7667 13.1537 12.7667 13.4667C12.7667 13.7796 13.0204 14.0333 13.3333 14.0333Z" fill="#4A98F7"/>
<path d="M11.0667 14.0333C11.3796 14.0333 11.6333 13.7796 11.6333 13.4667C11.6333 13.1537 11.3796 12.9 11.0667 12.9C10.7537 12.9 10.5 13.1537 10.5 13.4667C10.5 13.7796 10.7537 14.0333 11.0667 14.0333Z" fill="#BFE1FF"/>
<path d="M9.93334 15.7333C10.2463 15.7333 10.5 15.4796 10.5 15.1667C10.5 14.8537 10.2463 14.6 9.93334 14.6C9.62037 14.6 9.36667 14.8537 9.36667 15.1667C9.36667 15.4796 9.62037 15.7333 9.93334 15.7333Z" fill="#4A98F7"/>
<path d="M12.2 15.7333C12.513 15.7333 12.7667 15.4796 12.7667 15.1667C12.7667 14.8537 12.513 14.6 12.2 14.6C11.887 14.6 11.6333 14.8537 11.6333 15.1667C11.6333 15.4796 11.887 15.7333 12.2 15.7333Z" fill="#4A98F7"/>
<path d="M11.0667 17.4333C11.3796 17.4333 11.6333 17.1796 11.6333 16.8667C11.6333 16.5537 11.3796 16.3 11.0667 16.3C10.7537 16.3 10.5 16.5537 10.5 16.8667C10.5 17.1796 10.7537 17.4333 11.0667 17.4333Z" fill="#4A98F7"/>
<path d="M9.93334 19.1333C10.2463 19.1333 10.5 18.8796 10.5 18.5667C10.5 18.2537 10.2463 18 9.93334 18C9.62037 18 9.36667 18.2537 9.36667 18.5667C9.36667 18.8796 9.62037 19.1333 9.93334 19.1333Z" fill="#4A98F7"/>
<path d="M12.2 19.1333C12.513 19.1333 12.7667 18.8796 12.7667 18.5667C12.7667 18.2537 12.513 18 12.2 18C11.887 18 11.6333 18.2537 11.6333 18.5667C11.6333 18.8796 11.887 19.1333 12.2 19.1333Z" fill="#4A98F7"/>
<path d="M11.0667 20.8333C11.3796 20.8333 11.6333 20.5796 11.6333 20.2667C11.6333 19.9537 11.3796 19.7 11.0667 19.7C10.7537 19.7 10.5 19.9537 10.5 20.2667C10.5 20.5796 10.7537 20.8333 11.0667 20.8333Z" fill="#4A98F7"/>
<path d="M9.93334 22.5333C10.2463 22.5333 10.5 22.2796 10.5 21.9667C10.5 21.6537 10.2463 21.4 9.93334 21.4C9.62037 21.4 9.36667 21.6537 9.36667 21.9667C9.36667 22.2796 9.62037 22.5333 9.93334 22.5333Z" fill="#4A98F7"/>
<path d="M12.2 22.5333C12.513 22.5333 12.7667 22.2796 12.7667 21.9667C12.7667 21.6537 12.513 21.4 12.2 21.4C11.887 21.4 11.6333 21.6537 11.6333 21.9667C11.6333 22.2796 11.887 22.5333 12.2 22.5333Z" fill="#4A98F7"/>
<path d="M11.0667 24.2333C11.3796 24.2333 11.6333 23.9796 11.6333 23.6667C11.6333 23.3537 11.3796 23.1 11.0667 23.1C10.7537 23.1 10.5 23.3537 10.5 23.6667C10.5 23.9796 10.7537 24.2333 11.0667 24.2333Z" fill="#4A98F7"/>
<path d="M9.93334 25.9333C10.2463 25.9333 10.5 25.6796 10.5 25.3667C10.5 25.0537 10.2463 24.8 9.93334 24.8C9.62037 24.8 9.36667 25.0537 9.36667 25.3667C9.36667 25.6796 9.62037 25.9333 9.93334 25.9333Z" fill="#4A98F7"/>
<path d="M12.2 25.9333C12.513 25.9333 12.7667 25.6796 12.7667 25.3667C12.7667 25.0537 12.513 24.8 12.2 24.8C11.887 24.8 11.6333 25.0537 11.6333 25.3667C11.6333 25.6796 11.887 25.9333 12.2 25.9333Z" fill="#4A98F7"/>
<path d="M11.0667 27.6333C11.3796 27.6333 11.6333 27.3796 11.6333 27.0667C11.6333 26.7537 11.3796 26.5 11.0667 26.5C10.7537 26.5 10.5 26.7537 10.5 27.0667C10.5 27.3796 10.7537 27.6333 11.0667 27.6333Z" fill="#4A98F7"/>
<path d="M9.93334 29.3333C10.2463 29.3333 10.5 29.0796 10.5 28.7667C10.5 28.4537 10.2463 28.2 9.93334 28.2C9.62037 28.2 9.36667 28.4537 9.36667 28.7667C9.36667 29.0796 9.62037 29.3333 9.93334 29.3333Z" fill="#4A98F7"/>
<path d="M12.2 29.3333C12.513 29.3333 12.7667 29.0796 12.7667 28.7667C12.7667 28.4537 12.513 28.2 12.2 28.2C11.887 28.2 11.6333 28.4537 11.6333 28.7667C11.6333 29.0796 11.887 29.3333 12.2 29.3333Z" fill="#4A98F7"/>
<path d="M14.4667 29.3333C14.7797 29.3333 15.0334 29.0796 15.0334 28.7667C15.0334 28.4537 14.7797 28.2 14.4667 28.2C14.1537 28.2 13.9 28.4537 13.9 28.7667C13.9 29.0796 14.1537 29.3333 14.4667 29.3333Z" fill="#4A98F7"/>
<path d="M16.7334 29.3333C17.0463 29.3333 17.3 29.0796 17.3 28.7667C17.3 28.4537 17.0463 28.2 16.7334 28.2C16.4204 28.2 16.1667 28.4537 16.1667 28.7667C16.1667 29.0796 16.4204 29.3333 16.7334 29.3333Z" fill="#4A98F7"/>
<path d="M19 29.3333C19.313 29.3333 19.5667 29.0796 19.5667 28.7667C19.5667 28.4537 19.313 28.2 19 28.2C18.6871 28.2 18.4333 28.4537 18.4333 28.7667C18.4333 29.0796 18.6871 29.3333 19 29.3333Z" fill="#4A98F7"/>
<path d="M23.5333 9.5C25.0812 9.4976 26.6039 9.89152 27.9564 10.6442C29.3089 11.3969 30.4462 12.4834 31.26 13.8001C32.0737 15.1168 32.5368 16.6199 32.6052 18.1663C32.6736 19.7126 32.3449 21.2507 31.6505 22.6341C30.9561 24.0174 29.9191 25.2 28.6383 26.0691C27.3575 26.9382 25.8755 27.465 24.3334 27.5992C22.7914 27.7334 21.2407 27.4706 19.829 26.8357C18.4173 26.2009 17.1916 25.2153 16.2687 23.9727C15.3585 24.6933 14.5602 25.5451 13.9 26.5C13.8746 24.9759 14.3526 23.4861 15.26 22.2613C14.6409 20.8815 14.3773 19.3686 14.4932 17.8607C14.6092 16.3528 15.1009 14.898 15.9236 13.629C16.7463 12.3601 17.8737 11.3173 19.203 10.5961C20.5323 9.87483 22.021 9.498 23.5333 9.5Z" fill="#FFE45C"/>
<path d="M21.2667 20.8333C21.8926 20.8333 22.4 20.3259 22.4 19.7C22.4 19.0741 21.8926 18.5667 21.2667 18.5667C20.6407 18.5667 20.1333 19.0741 20.1333 19.7C20.1333 20.3259 20.6407 20.8333 21.2667 20.8333Z" fill="white"/>
<path d="M25.8 20.8333C26.4259 20.8333 26.9334 20.3259 26.9334 19.7C26.9334 19.0741 26.4259 18.5667 25.8 18.5667C25.1741 18.5667 24.6667 19.0741 24.6667 19.7C24.6667 20.3259 25.1741 20.8333 25.8 20.8333Z" fill="white"/>
<path d="M32.6 18.5667C32.6015 17.0536 32.224 15.5642 31.5018 14.2346C30.7796 12.905 29.7359 11.7774 28.4659 10.955C27.1958 10.1325 25.74 9.6413 24.2313 9.52622C22.7226 9.41114 21.2091 9.67584 19.829 10.2962C22.0235 9.79424 24.3262 10.1271 26.2886 11.2299C28.2511 12.3326 29.7329 14.1264 30.4453 16.2618C31.1577 18.3972 31.0498 20.7213 30.1426 22.7815C29.2354 24.8417 27.5938 26.4905 25.5376 27.4067C27.5431 26.9529 29.3346 25.8307 30.618 24.2243C31.9014 22.6179 32.6003 20.6228 32.6 18.5667Z" fill="#FFC247"/>
<path d="M18.4333 4.4C18.7463 4.4 19 4.14629 19 3.83333C19 3.52037 18.7463 3.26667 18.4333 3.26667C18.1204 3.26667 17.8667 3.52037 17.8667 3.83333C17.8667 4.14629 18.1204 4.4 18.4333 4.4Z" fill="#9196AA"/>
<path d="M12.2 4.4H16.1667C16.317 4.4 16.4611 4.3403 16.5674 4.23403C16.6736 4.12776 16.7333 3.98362 16.7333 3.83333C16.7333 3.68304 16.6736 3.53891 16.5674 3.43264C16.4611 3.32637 16.317 3.26667 16.1667 3.26667H12.2C12.0497 3.26667 11.9056 3.32637 11.7993 3.43264C11.693 3.53891 11.6333 3.68304 11.6333 3.83333C11.6333 3.98362 11.693 4.12776 11.7993 4.23403C11.9056 4.3403 12.0497 4.4 12.2 4.4Z" fill="#2B1505"/>
<path d="M33.1667 18.5667C33.164 16.5073 32.5026 14.5028 31.2791 12.8463C30.0556 11.1897 28.3342 9.96812 26.3667 9.36003V4.4C26.3658 3.49854 26.0073 2.63426 25.3698 1.99683C24.7324 1.3594 23.8681 1.0009 22.9667 1L8.23334 1C7.33188 1.0009 6.4676 1.3594 5.83017 1.99683C5.19275 2.63426 4.83424 3.49854 4.83334 4.4V31.6C4.83424 32.5015 5.19275 33.3657 5.83017 34.0032C6.4676 34.6406 7.33188 34.9991 8.23334 35H22.9667C23.8681 34.9991 24.7324 34.6406 25.3698 34.0032C26.0073 33.3657 26.3658 32.5015 26.3667 31.6V27.7733C28.3342 27.1652 30.0556 25.9436 31.2791 24.2871C32.5026 22.6305 33.164 20.626 33.1667 18.5667ZM25.2333 31.6C25.2333 32.2012 24.9945 32.7777 24.5695 33.2028C24.1444 33.6279 23.5678 33.8667 22.9667 33.8667H8.23334C7.63219 33.8667 7.05565 33.6279 6.63057 33.2028C6.20549 32.7777 5.96668 32.2012 5.96668 31.6V4.4C5.96668 3.79884 6.20549 3.22231 6.63057 2.79722C7.05565 2.37214 7.63219 2.13333 8.23334 2.13333H22.9667C23.5678 2.13333 24.1444 2.37214 24.5695 2.79722C24.9945 3.22231 25.2333 3.79884 25.2333 4.4V9.09257C24.8585 9.02658 24.48 8.98305 24.1 8.96223V7.23333C24.1 6.78247 23.9209 6.35006 23.6021 6.03125C23.2833 5.71244 22.8509 5.53333 22.4 5.53333H8.80001C8.34914 5.53333 7.91674 5.71244 7.59793 6.03125C7.27912 6.35006 7.10001 6.78247 7.10001 7.23333V31.0333C7.10001 31.4842 7.27912 31.9166 7.59793 32.2354C7.91674 32.5542 8.34914 32.7333 8.80001 32.7333H22.4C22.8509 32.7333 23.2833 32.5542 23.6021 32.2354C23.9209 31.9166 24.1 31.4842 24.1 31.0333V28.1711C24.48 28.1503 24.8585 28.1068 25.2333 28.0408V31.6ZM13.9 18.5667C13.8988 19.8104 14.1408 21.0424 14.6123 22.1933C13.7564 23.4647 13.3101 24.9675 13.3333 26.5C13.3334 26.6215 13.3725 26.7398 13.4449 26.8374C13.5172 26.935 13.6191 27.0068 13.7354 27.0421C13.8516 27.0774 13.9762 27.0744 14.0906 27.0335C14.205 26.9926 14.3033 26.916 14.3709 26.8151C14.8928 26.0676 15.4994 25.3831 16.1786 24.7751C17.0168 25.7761 18.052 26.594 19.2198 27.1779C20.3875 27.7619 21.6629 28.0993 22.9667 28.1694V31.0333C22.9667 31.1836 22.907 31.3278 22.8007 31.434C22.6944 31.5403 22.5503 31.6 22.4 31.6H8.80001C8.64972 31.6 8.50559 31.5403 8.39932 31.434C8.29305 31.3278 8.23334 31.1836 8.23334 31.0333V7.23333C8.23334 7.08304 8.29305 6.93891 8.39932 6.83264C8.50559 6.72637 8.64972 6.66667 8.80001 6.66667H22.4C22.5503 6.66667 22.6944 6.72637 22.8007 6.83264C22.907 6.93891 22.9667 7.08304 22.9667 7.23333V8.96223C20.5165 9.10756 18.2142 10.1822 16.5293 11.967C14.8445 13.7518 13.9041 16.1122 13.9 18.5667ZM23.5333 27.0667C22.208 27.0703 20.9005 26.7614 19.717 26.1651C18.5334 25.5687 17.5071 24.7017 16.7214 23.6344C16.6313 23.5141 16.497 23.4346 16.3482 23.4134C16.1995 23.3921 16.0483 23.4309 15.9281 23.521C15.4969 23.8482 15.0932 24.2102 14.7211 24.6034C14.9262 23.8803 15.2626 23.2011 15.7133 22.5996C15.7739 22.5188 15.8117 22.4233 15.823 22.323C15.8342 22.2227 15.8185 22.1212 15.7774 22.029C15.2865 20.9408 15.0328 19.7605 15.0333 18.5667C15.0333 16.8855 15.5319 15.2421 16.4659 13.8443C17.3998 12.4465 18.7274 11.357 20.2805 10.7137C21.8337 10.0703 23.5428 9.90202 25.1916 10.23C26.8404 10.558 28.355 11.3675 29.5438 12.5563C30.7325 13.745 31.542 15.2596 31.87 16.9084C32.198 18.5572 32.0297 20.2663 31.3863 21.8195C30.743 23.3726 29.6535 24.7002 28.2557 25.6342C26.8579 26.5682 25.2145 27.0667 23.5333 27.0667Z" fill="#2B1505"/>
<path d="M20.1333 15.7333C19.9847 15.7335 19.8422 15.7923 19.7368 15.8971C19.6314 16.0019 19.5717 16.144 19.5706 16.2926C19.5696 16.442 19.6271 16.5858 19.731 16.6932C19.8348 16.8005 19.9767 16.8628 20.126 16.8667C20.4517 16.8991 20.7606 17.0265 21.0144 17.2332C21.2682 17.4398 21.4557 17.7165 21.5534 18.0289C21.2097 17.9701 20.8562 18.0184 20.5409 18.1673C20.2256 18.3161 19.9637 18.5584 19.7907 18.8611C19.6177 19.1639 19.5419 19.5125 19.5738 19.8598C19.6056 20.207 19.7435 20.5361 19.9686 20.8023C20.1938 21.0686 20.4954 21.2591 20.8326 21.3482C21.1697 21.4372 21.5261 21.4204 21.8533 21.3001C22.1806 21.1798 22.463 20.9617 22.6621 20.6755C22.8613 20.3893 22.9676 20.0487 22.9667 19.7C22.9667 15.7787 20.1617 15.7333 20.1333 15.7333ZM21.2667 20.2667C21.1546 20.2667 21.045 20.2334 20.9519 20.1712C20.8587 20.1089 20.786 20.0204 20.7431 19.9169C20.7003 19.8133 20.689 19.6994 20.7109 19.5894C20.7328 19.4795 20.7867 19.3786 20.866 19.2993C20.9452 19.2201 21.0462 19.1661 21.1561 19.1442C21.266 19.1224 21.38 19.1336 21.4835 19.1765C21.5871 19.2194 21.6756 19.292 21.7378 19.3852C21.8001 19.4784 21.8333 19.5879 21.8333 19.7C21.8333 19.8503 21.7736 19.9944 21.6674 20.1007C21.5611 20.207 21.417 20.2667 21.2667 20.2667Z" fill="#2B1505"/>
<path d="M24.6667 15.7333C24.5181 15.7335 24.3755 15.7923 24.2701 15.8971C24.1647 16.0019 24.105 16.144 24.104 16.2926C24.1029 16.442 24.1605 16.5858 24.2643 16.6932C24.3682 16.8005 24.51 16.8628 24.6593 16.8667C24.985 16.8991 25.2939 17.0265 25.5478 17.2332C25.8016 17.4398 25.989 17.7165 26.0867 18.0289C25.743 17.9701 25.3896 18.0184 25.0742 18.1673C24.7589 18.3161 24.497 18.5584 24.324 18.8611C24.151 19.1639 24.0753 19.5125 24.1071 19.8598C24.1389 20.207 24.2768 20.5361 24.502 20.8023C24.7271 21.0686 25.0287 21.2591 25.3659 21.3482C25.703 21.4372 26.0594 21.4204 26.3867 21.3001C26.7139 21.1798 26.9963 20.9617 27.1955 20.6755C27.3946 20.3893 27.5009 20.0487 27.5 19.7C27.5 15.7787 24.695 15.7333 24.6667 15.7333ZM25.8 20.2667C25.6879 20.2667 25.5784 20.2334 25.4852 20.1712C25.392 20.1089 25.3194 20.0204 25.2765 19.9169C25.2336 19.8133 25.2224 19.6994 25.2442 19.5894C25.2661 19.4795 25.3201 19.3786 25.3993 19.2993C25.4786 19.2201 25.5795 19.1661 25.6894 19.1442C25.7994 19.1224 25.9133 19.1336 26.0169 19.1765C26.1204 19.2194 26.2089 19.292 26.2712 19.3852C26.3334 19.4784 26.3667 19.5879 26.3667 19.7C26.3667 19.8503 26.307 19.9944 26.2007 20.1007C26.0944 20.207 25.9503 20.2667 25.8 20.2667Z" fill="#2B1505"/>
</g>
<defs>
<clipPath id="clip0_1_9">
<rect width="35" height="35" fill="white"/>
</clipPath>
</defs>
</svg>
