<svg width="35" height="35" viewBox="0 0 35 35" fill="none" xmlns="http://www.w3.org/2000/svg">
<g clip-path="url(#clip0_1_6)">
<rect width="35" height="35" fill="white"/>
<path d="M23.6249 7.88709V11.3971C23.2283 11.3085 22.8149 11.2621 22.3916 11.2621C21.6336 11.2621 20.9094 11.4126 20.2499 11.684C19.8069 11.8668 19.3935 12.1044 19.0166 12.3871C18.2446 12.9665 17.6272 13.7413 17.2363 14.6371C16.9339 15.3262 16.7666 16.0869 16.7666 16.8871C16.7666 17.6872 16.9339 18.448 17.2363 19.1371C17.6272 20.0329 18.2446 20.8077 19.0166 21.3871C19.956 22.093 21.1246 22.5121 22.3916 22.5121C22.8149 22.5121 23.2283 22.4657 23.6249 22.3771V30.3871H5.62486V7.88709H23.6249Z" fill="#F0C020"/>
<path d="M17.2363 14.6371C16.9339 15.3262 16.7666 16.0869 16.7666 16.8871C16.7666 17.6872 16.9339 18.448 17.2363 19.1371C17.6272 20.0329 18.2446 20.8077 19.0166 21.3871C19.956 22.093 21.1246 22.5121 22.3916 22.5121C22.8149 22.5121 23.2283 22.4657 23.6249 22.3771V23.0943C21.4522 23.526 19.3724 22.7962 17.945 21.3871C17.308 20.7585 16.8017 19.9935 16.4755 19.1371C16.2097 18.4396 16.0635 17.683 16.0635 16.8871C16.0635 16.0897 16.2097 15.3332 16.4755 14.6371C16.8017 13.7793 17.308 13.0157 17.945 12.3871C18.5961 11.7444 19.3822 11.2452 20.2499 10.9302C21.2891 10.5533 22.445 10.4451 23.6249 10.6785V11.3971C23.2283 11.3085 22.8149 11.2621 22.3916 11.2621C21.6336 11.2621 20.9094 11.4126 20.2499 11.684C19.8069 11.8668 19.3935 12.1044 19.0166 12.3871C18.2446 12.9665 17.6272 13.7413 17.2363 14.6371Z" fill="#E8A61E"/>
<path d="M20.2499 10.8402V11.684C19.8069 11.8668 19.3935 12.1044 19.0166 12.3871H9.70299C9.31486 12.3871 8.99986 12.0721 8.99986 11.684V10.8402C8.99986 10.4521 9.31486 10.1371 9.70299 10.1371H19.5467C19.9349 10.1371 20.2499 10.4521 20.2499 10.8402Z" fill="#72C2E9"/>
<path d="M20.2499 10.9302V11.684C19.8069 11.8668 19.3935 12.1044 19.0166 12.3871H17.945C18.5961 11.7444 19.3822 11.2452 20.2499 10.9302Z" fill="#4BA5C8"/>
<path d="M17.2363 14.6371C16.9339 15.3262 16.7666 16.0869 16.7666 16.8871H9.70299C9.31486 16.8871 8.99986 16.5721 8.99986 16.184V15.3402C8.99986 14.9521 9.31486 14.6371 9.70299 14.6371H17.2363Z" fill="#72C2E9"/>
<path d="M17.2363 14.6371C16.9339 15.3262 16.7666 16.0869 16.7666 16.8871H16.0635C16.0635 16.0897 16.2097 15.3332 16.4755 14.6371H17.2363Z" fill="#4BA5C8"/>
<path d="M19.0166 21.3871H9.70299C9.31486 21.3871 8.99986 21.0721 8.99986 20.684V19.8402C8.99986 19.4521 9.31486 19.1371 9.70299 19.1371H17.2363C17.6272 20.0329 18.2446 20.8077 19.0166 21.3871Z" fill="#72C2E9"/>
<path d="M19.0166 21.3871H17.945C17.308 20.7585 16.8017 19.9935 16.4755 19.1371H17.2363C17.6272 20.0329 18.2446 20.8077 19.0166 21.3871Z" fill="#4BA5C8"/>
<path d="M16.8749 23.6371H12.3749V30.3871H16.8749V23.6371Z" fill="#72C2E9"/>
<path d="M24.0467 7.88709H5.20299C4.81472 7.88709 4.49986 7.57223 4.49986 7.18397V6.34022C4.49986 5.95195 4.81472 5.63709 5.20299 5.63709H24.0467C24.435 5.63709 24.7499 5.95195 24.7499 6.34022V7.18397C24.7499 7.57237 24.4351 7.88709 24.0467 7.88709Z" fill="#EFEFEF"/>
<path d="M10.1249 23.6371H7.87486V28.1371H10.1249V23.6371Z" fill="#72C2E9"/>
<path d="M21.3749 23.6371H19.1249V28.1371H21.3749V23.6371Z" fill="#72C2E9"/>
<path d="M24.0467 32.6371H5.20299C4.81472 32.6371 4.49986 32.3222 4.49986 31.934V31.0902C4.49986 30.702 4.81472 30.3871 5.20299 30.3871H24.0467C24.435 30.3871 24.7499 30.702 24.7499 31.0902V31.934C24.7499 32.3224 24.4351 32.6371 24.0467 32.6371Z" fill="#EFEFEF"/>
<path d="M25.1717 34.8871H4.07799C3.68972 34.8871 3.37486 34.5722 3.37486 34.184V33.3402C3.37486 32.952 3.68972 32.6371 4.07799 32.6371H25.1717C25.56 32.6371 25.8749 32.952 25.8749 33.3402V34.184C25.8749 34.5724 25.5601 34.8871 25.1717 34.8871Z" fill="#EFEFEF"/>
<path d="M28.0166 16.8871C28.0166 18.0332 27.6735 19.1005 27.0842 19.9893C26.6652 20.6207 26.1238 21.1621 25.4938 21.5797C24.9327 21.951 24.3027 22.2252 23.6249 22.3771C23.2283 22.4657 22.8149 22.5121 22.3916 22.5121C21.1246 22.5121 19.956 22.093 19.0166 21.3871C18.2446 20.8077 17.6272 20.0329 17.2363 19.1371C16.9339 18.448 16.7666 17.6872 16.7666 16.8871C16.7666 16.0869 16.9339 15.3262 17.2363 14.6371C17.6272 13.7413 18.2446 12.9665 19.0166 12.3871C19.3935 12.1044 19.8069 11.8668 20.2499 11.684C20.9094 11.4126 21.6336 11.2621 22.3916 11.2621C22.8149 11.2621 23.2283 11.3085 23.6249 11.3971C26.1378 11.9596 28.0166 14.204 28.0166 16.8871Z" fill="#EFEFEF"/>
<path d="M22.3927 21.598C21.8845 21.598 21.3829 21.5169 20.9019 21.3571C20.7176 21.2958 20.6179 21.0968 20.6792 20.9126C20.7405 20.7283 20.9399 20.629 21.1237 20.6899C21.5331 20.826 21.9599 20.8949 22.3926 20.8949C24.6202 20.8949 26.3938 19.0936 26.3938 16.8751C26.3938 15.8088 25.9789 14.8065 25.2254 14.0532C25.0881 13.916 25.0881 13.6934 25.2254 13.5561C25.3627 13.4187 25.5854 13.4187 25.7226 13.5561C26.6088 14.4423 27.0967 15.621 27.0967 16.8753C27.097 19.4849 25.0071 21.598 22.3927 21.598ZM19.5619 20.6542C19.3861 20.5218 19.2174 20.3752 19.0604 20.2184C18.9232 20.0811 18.9231 19.8585 19.0604 19.7211C19.1978 19.5839 19.4204 19.5839 19.5577 19.7211C19.6914 19.8548 19.8352 19.9797 19.9849 20.0924C20.14 20.2092 20.1711 20.4296 20.0544 20.5847C19.9375 20.7399 19.7169 20.7707 19.5619 20.6542Z" fill="white"/>
<path d="M32.2958 26.7913C31.8556 27.2301 31.1441 27.2301 30.7039 26.7913L25.4938 21.5798C26.1238 21.1621 26.6652 20.6207 27.0842 19.9893L32.2958 25.1994C32.7346 25.6396 32.7346 26.3512 32.2958 26.7913Z" fill="#7D7B79"/>
<path d="M23.524 15.1492L21.8648 16.8085L21.2593 16.203C20.9249 15.8685 20.3826 15.8685 20.0482 16.203C19.7138 16.5374 19.7138 17.0796 20.0482 17.414L21.2593 18.6251C21.5937 18.9595 22.1359 18.9595 22.4703 18.6251L24.7351 16.3603C25.0695 16.0259 25.0695 15.4837 24.7351 15.1492C24.4007 14.8148 23.8584 14.8148 23.524 15.1492Z" fill="#13BF6D"/>
<path d="M12.7557 5.63709H10.5563C10.9726 4.95928 11.1216 4.18163 11.0232 3.43772C11.2974 3.22819 11.6026 3.05944 11.9288 2.94131C12.4533 2.75147 13.0327 2.68819 13.6233 2.78522C13.7879 3.78647 13.4982 4.84678 12.7557 5.63709Z" fill="#13BF6D"/>
<path d="M8.73662 5.63709H6.53724C5.79474 4.84678 5.50505 3.78647 5.66958 2.78522C6.26021 2.68819 6.83958 2.75147 7.36412 2.94131C7.69037 3.05944 7.99693 3.22819 8.26974 3.43772C8.1713 4.18163 8.32037 4.95928 8.73662 5.63709Z" fill="#13BF6D"/>
<path d="M8.73661 5.63709H7.62708C7.24598 4.77366 7.16723 3.82725 7.36411 2.94131C7.69036 3.05944 7.99692 3.22819 8.26973 3.43772C8.1713 4.18162 8.32036 4.95928 8.73661 5.63709Z" fill="#129D70"/>
<path d="M11.6658 5.63709H10.5563C10.9726 4.95928 11.1216 4.18162 11.0232 3.43772C11.2974 3.22819 11.6026 3.05944 11.9288 2.94131C12.1257 3.82725 12.0469 4.77366 11.6658 5.63709Z" fill="#129D70"/>
<path d="M10.5563 5.63709H8.73661C8.32036 4.95928 8.1713 4.18162 8.26973 3.43772C8.38505 2.54756 8.85473 1.70663 9.64645 1.13709C10.4382 1.70522 10.9079 2.54756 11.0232 3.43772C11.1216 4.18162 10.9725 4.95928 10.5563 5.63709Z" fill="#13BF6D"/>
<path d="M22.7125 5.63709H20.5131C20.9294 4.95928 21.0784 4.18163 20.98 3.43772C21.2542 3.22819 21.5594 3.05944 21.8856 2.94131C22.4101 2.75147 22.9895 2.68819 23.5801 2.78522C23.7447 3.78647 23.455 4.84678 22.7125 5.63709Z" fill="#13BF6D"/>
<path d="M18.6934 5.63709H16.494C15.7515 4.84678 15.4619 3.78647 15.6264 2.78522C16.217 2.68819 16.7964 2.75147 17.3209 2.94131C17.6472 3.05944 17.9537 3.22819 18.2265 3.43772C18.1281 4.18163 18.2772 4.95928 18.6934 5.63709Z" fill="#13BF6D"/>
<path d="M18.6934 5.63709H17.5839C17.2028 4.77366 17.1241 3.82725 17.3209 2.94131C17.6472 3.05944 17.9537 3.22819 18.2266 3.43772C18.1281 4.18162 18.2772 4.95928 18.6934 5.63709Z" fill="#129D70"/>
<path d="M21.6226 5.63709H20.5131C20.9294 4.95928 21.0784 4.18162 20.98 3.43772C21.2542 3.22819 21.5594 3.05944 21.8856 2.94131C22.0825 3.82725 22.0037 4.77366 21.6226 5.63709Z" fill="#129D70"/>
<path d="M20.5131 5.63709H18.6934C18.2772 4.95928 18.1281 4.18162 18.2266 3.43772C18.3419 2.54756 18.8116 1.70663 19.6033 1.13709C20.395 1.70522 20.8647 2.54756 20.98 3.43772C21.0784 4.18162 20.9294 4.95928 20.5131 5.63709Z" fill="#13BF6D"/>
<path d="M23.2754 14.9006L21.8647 16.3112L21.5076 15.9543C21.0357 15.4823 20.2715 15.4823 19.7994 15.9543C19.3274 16.4264 19.3272 17.1904 19.7994 17.6625L21.0105 18.8737C21.4813 19.3445 22.2477 19.3447 22.7187 18.8737L24.9834 16.6089C25.4544 16.138 25.4544 15.3717 24.9834 14.9008C24.5128 14.4297 23.7465 14.4295 23.2754 14.9006ZM24.4865 16.1117L22.2217 18.3765C22.0248 18.5732 21.7045 18.5732 21.5078 18.3765L20.2967 17.1653C20.0995 16.9682 20.0993 16.6487 20.2967 16.4514C20.4937 16.2541 20.8132 16.2541 21.0105 16.4514L21.616 17.057C21.7533 17.1944 21.976 17.1944 22.1131 17.057L23.7724 15.3977C23.9694 15.2009 24.2895 15.201 24.4863 15.3977C24.6833 15.5946 24.6833 15.9148 24.4865 16.1117Z" fill="black"/>
<path d="M5.62486 15.9674C5.81903 15.9674 5.97643 15.81 5.97643 15.6158C5.97643 15.4217 5.81903 15.2643 5.62486 15.2643C5.4307 15.2643 5.2733 15.4217 5.2733 15.6158C5.2733 15.81 5.4307 15.9674 5.62486 15.9674Z" fill="black"/>
<path d="M10.1249 28.4887C10.3191 28.4887 10.4764 28.3313 10.4764 28.1371V23.6371C10.4764 23.4429 10.3191 23.2855 10.1249 23.2855H7.87486C7.68066 23.2855 7.5233 23.4429 7.5233 23.6371V28.1371C7.5233 28.3313 7.68066 28.4887 7.87486 28.4887H10.1249ZM8.22643 23.9887H9.7733V27.7855H8.22643V23.9887Z" fill="black"/>
<path d="M21.3749 28.4887C21.5691 28.4887 21.7264 28.3313 21.7264 28.1371V23.6371C21.7264 23.4429 21.5691 23.2855 21.3749 23.2855H19.1249C18.9307 23.2855 18.7733 23.4429 18.7733 23.6371V28.1371C18.7733 28.3313 18.9307 28.4887 19.1249 28.4887H21.3749ZM19.4764 23.9887H21.0233V27.7855H19.4764V23.9887Z" fill="black"/>
<path d="M30.6069 23.5105C30.7447 23.3741 30.7447 23.1505 30.6069 23.0141C30.4747 22.8805 30.2427 22.8805 30.1105 23.0141C29.9752 23.1466 29.968 23.371 30.1105 23.5105C30.2479 23.6509 30.4725 23.6479 30.6069 23.5105Z" fill="black"/>
<path d="M32.5447 24.9519L31.6011 24.0083C31.4689 23.8762 31.2369 23.8762 31.1047 24.0083C30.9669 24.1462 30.9669 24.3683 31.1047 24.5062L32.0469 25.4483C32.3447 25.749 32.3529 26.2319 32.0469 26.5438C31.7416 26.8462 31.2515 26.8424 30.9514 26.5424L26.0352 21.6247C26.4538 21.301 26.8339 20.914 27.1292 20.5307L29.1149 22.5177C29.2485 22.6499 29.4805 22.6499 29.6127 22.5177C29.752 22.3754 29.7473 22.1543 29.6127 22.0199L27.5307 19.938C28.079 19.0171 28.3683 17.9686 28.3683 16.8871C28.3683 14.2075 26.5376 11.8281 23.9766 11.123V8.23866H24.0469C24.6285 8.23866 25.1016 7.76559 25.1016 7.18397V6.34022C25.1016 5.75859 24.6285 5.28553 24.0469 5.28553H23.4225C23.8921 4.52953 24.0756 3.63037 23.9272 2.72827C23.9027 2.57948 23.7862 2.46277 23.6372 2.4383C22.8308 2.30583 21.979 2.43731 21.2203 2.86144C20.9949 2.05341 20.5062 1.35225 19.8083 0.851484C19.6857 0.763594 19.5206 0.763453 19.3981 0.851766C18.7003 1.35366 18.2118 2.05481 17.9866 2.86102C17.2358 2.44181 16.3851 2.30442 15.5696 2.4383C15.4207 2.46277 15.3041 2.57934 15.2796 2.72827C15.1314 3.63037 15.3149 4.52953 15.7843 5.28553H13.4655C13.9351 4.52953 14.1186 3.63037 13.9703 2.72827C13.9458 2.57948 13.8292 2.46277 13.6803 2.4383C12.8708 2.30527 12.0191 2.43886 11.2634 2.86144C11.0379 2.05341 10.5493 1.35225 9.85135 0.851484C9.72872 0.763594 9.56363 0.763453 9.44114 0.851766C8.74336 1.35352 8.25483 2.05467 8.02955 2.86102C7.27425 2.43942 6.42277 2.30527 5.61249 2.4383C5.46357 2.46277 5.34699 2.57934 5.32252 2.72827C5.1743 3.63037 5.35782 4.52953 5.82722 5.28553H5.20285C4.62122 5.28553 4.14816 5.75859 4.14816 6.34022V7.18397C4.14816 7.76559 4.62122 8.23866 5.20285 8.23866H5.27316V14.2096C5.27316 14.4037 5.43066 14.5612 5.62472 14.5612C5.81878 14.5612 5.97628 14.4037 5.97628 14.2096V8.23866C9.6698 8.23866 19.5088 8.23866 23.2732 8.23866V10.9769C22.9826 10.9342 22.6877 10.9105 22.3914 10.9105C21.7783 10.9105 21.1784 11.0033 20.6013 11.1845V10.8402C20.6013 10.2586 20.1282 9.78553 19.5466 9.78553H9.70285C9.12122 9.78553 8.64816 10.2586 8.64816 10.8402V11.684C8.64816 12.2656 9.12122 12.7387 9.70285 12.7387H18.0939C17.6552 13.1934 17.29 13.7156 17.0141 14.2855H9.70299C9.12136 14.2855 8.6483 14.7586 8.6483 15.3402V16.184C8.6483 16.7656 9.12136 17.2387 9.70299 17.2387H16.426C16.4565 17.769 16.5572 18.2865 16.7252 18.7855H9.70299C9.12136 18.7855 8.6483 19.2586 8.6483 19.8402V20.684C8.6483 21.2656 9.12136 21.7387 9.70299 21.7387H18.9032C19.9236 22.4744 21.1267 22.8637 22.3916 22.8637C22.6879 22.8637 22.9826 22.8402 23.2733 22.7973V30.0355H17.2264V23.6371C17.2264 23.4429 17.0691 23.2855 16.8749 23.2855H12.3749C12.1807 23.2855 12.0233 23.4429 12.0233 23.6371V30.0355C9.75657 30.0355 8.28071 30.0355 5.97643 30.0355V17.0221C5.97643 16.828 5.81893 16.6705 5.62486 16.6705C5.4308 16.6705 5.2733 16.828 5.2733 17.0221V30.0355H5.20299C4.62136 30.0355 4.1483 30.5086 4.1483 31.0902V31.934C4.1483 32.0574 4.17066 32.1754 4.20989 32.2855H4.07799C3.49636 32.2855 3.0233 32.7586 3.0233 33.3402V34.184C3.0233 34.7656 3.49636 35.2387 4.07799 35.2387H25.1717C25.7534 35.2387 26.2264 34.7656 26.2264 34.184V33.3402C26.2264 32.7586 25.7534 32.2855 25.1717 32.2855H25.0398C25.0789 32.1754 25.1014 32.0574 25.1014 31.934V31.0902C25.1014 30.5086 24.6284 30.0355 24.0467 30.0355H23.9764V22.6515C24.4906 22.5103 24.9818 22.3009 25.4427 22.0265L30.455 27.0402C31.0307 27.613 31.9632 27.6189 32.5447 27.0402C33.1262 26.4558 33.1151 25.5223 32.5447 24.9519ZM16.4251 16.5355H9.70299C9.50921 16.5355 9.35143 16.3777 9.35143 16.184V15.3402C9.35143 15.1464 9.50921 14.9887 9.70299 14.9887H16.7235C16.5551 15.4894 16.4544 16.029 16.4251 16.5355ZM21.3504 3.60464C21.9357 3.2123 22.6079 3.05128 23.2647 3.10106C23.3274 3.89742 23.0759 4.67536 22.5555 5.28553H21.0841C21.2909 4.77802 21.3936 4.18992 21.3504 3.60464ZM19.6036 1.5833C20.7089 2.52548 20.9448 4.07869 20.3068 5.28553H19.9548V3.38709C19.9548 3.19289 19.7975 3.03553 19.6033 3.03553C19.4091 3.03553 19.2517 3.19289 19.2517 3.38709V5.28553H18.8999C18.261 4.07798 18.4985 2.52675 19.6036 1.5833ZM15.942 3.10106C16.6119 3.04973 17.2863 3.22116 17.8563 3.60422C17.814 4.17797 17.9106 4.76536 18.1226 5.28553H16.6511C16.1307 4.67536 15.8792 3.89742 15.942 3.10106ZM11.3936 3.60464C11.9703 3.21792 12.6409 3.05058 13.3079 3.10106C13.3706 3.89742 13.1191 4.67536 12.5987 5.28553H11.1272C11.3513 4.73597 11.4335 4.14492 11.3936 3.60464ZM9.64674 1.5833C10.7508 2.5245 10.989 4.07658 10.35 5.28553H9.99816V3.38709C9.99816 3.19289 9.8408 3.03553 9.6466 3.03553C9.45239 3.03553 9.29503 3.19289 9.29503 3.38709V5.28553H8.94305C8.31052 4.09008 8.53158 2.53519 9.64674 1.5833ZM5.985 3.10106C6.64102 3.05114 7.31743 3.21328 7.89933 3.60422C7.857 4.17755 7.9546 4.76789 8.16568 5.28553H6.69418C6.17386 4.67536 5.92243 3.89742 5.985 3.10106ZM5.20299 7.53553C5.00921 7.53553 4.85143 7.37775 4.85143 7.18397V6.34022C4.85143 6.14644 5.00921 5.98866 5.20299 5.98866C8.90635 5.98866 20.3282 5.98866 24.0467 5.98866C24.2405 5.98866 24.3983 6.14644 24.3983 6.34022V7.18397C24.3983 7.37775 24.2405 7.53553 24.0467 7.53553C22.8295 7.53553 5.76816 7.53553 5.20299 7.53553ZM9.70299 12.0355C9.50921 12.0355 9.35143 11.8777 9.35143 11.684V10.8402C9.35143 10.6464 9.50921 10.4887 9.70299 10.4887H19.5467C19.7405 10.4887 19.8983 10.6464 19.8983 10.8402V11.4539C19.584 11.5987 19.217 11.8084 18.9014 12.0355H9.70299ZM9.70299 21.0355C9.50921 21.0355 9.35143 20.8777 9.35143 20.684V19.8402C9.35143 19.6464 9.50921 19.4887 9.70299 19.4887H17.011C17.2894 20.0642 17.6695 20.5995 18.0899 21.0355H9.70299ZM12.7264 23.9887H16.5233V30.0355C15.1455 30.0355 14.178 30.0355 12.7264 30.0355V23.9887ZM25.1717 32.9887C25.3655 32.9887 25.5233 33.1464 25.5233 33.3402V34.184C25.5233 34.3777 25.3655 34.5355 25.1717 34.5355H4.07799C3.88421 34.5355 3.72643 34.3777 3.72643 34.184V33.3402C3.72643 33.1464 3.88421 32.9887 4.07799 32.9887H5.20299C6.21914 32.9887 24.5948 32.9887 25.1717 32.9887ZM24.0467 30.7387C24.2405 30.7387 24.3983 30.8964 24.3983 31.0902V31.934C24.3983 32.1277 24.2405 32.2855 24.0467 32.2855H5.20299C5.00921 32.2855 4.85143 32.1277 4.85143 31.934V31.0902C4.85143 30.8964 5.00921 30.7387 5.20299 30.7387H5.62486C7.76138 30.7387 21.8924 30.7387 24.0467 30.7387ZM22.3916 22.1605C19.457 22.1605 17.1181 19.7755 17.1181 16.8871C17.1181 13.9884 19.4671 11.6137 22.3916 11.6137C25.3731 11.6137 27.665 14.0721 27.665 16.8871C27.665 19.799 25.3046 22.1605 22.3916 22.1605Z" fill="black"/>
</g>
<defs>
<clipPath id="clip0_1_6">
<rect width="35" height="35" fill="white"/>
</clipPath>
</defs>
</svg>
