<svg width="20" height="21" viewBox="0 0 20 21" fill="none" xmlns="http://www.w3.org/2000/svg">
<path d="M9.99739 1.87305C12.2616 1.87305 12.5441 1.88138 13.4324 1.92305C14.3199 1.96471 14.9241 2.10388 15.4557 2.31055C16.0057 2.52221 16.4691 2.80888 16.9324 3.27138C17.3561 3.68796 17.684 4.19187 17.8932 4.74805C18.0991 5.27888 18.2391 5.88388 18.2807 6.77138C18.3199 7.65971 18.3307 7.94221 18.3307 10.2064C18.3307 12.4705 18.3224 12.753 18.2807 13.6414C18.2391 14.5289 18.0991 15.133 17.8932 15.6647C17.6846 16.2212 17.3567 16.7252 16.9324 17.1414C16.5157 17.565 16.0118 17.8928 15.4557 18.1022C14.9249 18.308 14.3199 18.448 13.4324 18.4897C12.5441 18.5289 12.2616 18.5397 9.99739 18.5397C7.73323 18.5397 7.45073 18.5314 6.56239 18.4897C5.67489 18.448 5.07073 18.308 4.53906 18.1022C3.98267 17.8934 3.47867 17.5655 3.0624 17.1414C2.63857 16.7249 2.31067 16.2209 2.10156 15.6647C1.8949 15.1339 1.75573 14.5289 1.71406 13.6414C1.6749 12.753 1.66406 12.4705 1.66406 10.2064C1.66406 7.94221 1.6724 7.65971 1.71406 6.77138C1.75573 5.88305 1.8949 5.27971 2.10156 4.74805C2.31009 4.19153 2.63807 3.68748 3.0624 3.27138C3.47879 2.84741 3.98275 2.51949 4.53906 2.31055C5.07073 2.10388 5.67406 1.96471 6.56239 1.92305C7.45073 1.88388 7.73323 1.87305 9.99739 1.87305ZM9.99739 6.03971C8.89233 6.03971 7.83252 6.4787 7.05112 7.2601C6.26972 8.0415 5.83073 9.10131 5.83073 10.2064C5.83073 11.3114 6.26972 12.3713 7.05112 13.1527C7.83252 13.9341 8.89233 14.373 9.99739 14.373C11.1025 14.373 12.1623 13.9341 12.9437 13.1527C13.7251 12.3713 14.1641 11.3114 14.1641 10.2064C14.1641 9.10131 13.7251 8.0415 12.9437 7.2601C12.1623 6.4787 11.1025 6.03971 9.99739 6.03971ZM15.4141 5.83138C15.4141 5.55511 15.3043 5.29016 15.109 5.09481C14.9136 4.89946 14.6487 4.78971 14.3724 4.78971C14.0961 4.78971 13.8312 4.89946 13.6358 5.09481C13.4405 5.29016 13.3307 5.55511 13.3307 5.83138C13.3307 6.10765 13.4405 6.3726 13.6358 6.56795C13.8312 6.7633 14.0961 6.87305 14.3724 6.87305C14.6487 6.87305 14.9136 6.7633 15.109 6.56795C15.3043 6.3726 15.4141 6.10765 15.4141 5.83138ZM9.99739 7.70638C10.6604 7.70638 11.2963 7.96977 11.7652 8.43861C12.234 8.90745 12.4974 9.54334 12.4974 10.2064C12.4974 10.8694 12.234 11.5053 11.7652 11.9741C11.2963 12.443 10.6604 12.7064 9.99739 12.7064C9.33435 12.7064 8.69847 12.443 8.22963 11.9741C7.76079 11.5053 7.4974 10.8694 7.4974 10.2064C7.4974 9.54334 7.76079 8.90745 8.22963 8.43861C8.69847 7.96977 9.33435 7.70638 9.99739 7.70638Z" fill="white"/>
</svg>
