<svg width="35" height="35" viewBox="0 0 35 35" fill="none" xmlns="http://www.w3.org/2000/svg">
<g clip-path="url(#clip0_1_8)">
<rect width="35" height="35" fill="white"/>
<g clip-path="url(#clip1_1_8)">
<path d="M18.0895 34.3276L4.97503 28.2122C4.25074 27.8744 3.93737 27.0135 4.27511 26.2892L11.3078 11.2076C13.3343 6.8618 18.5 4.98164 22.8458 7.00816C27.1915 9.03461 29.0717 14.2003 27.0452 18.5461L20.0124 33.6277C19.6748 34.3519 18.8139 34.6652 18.0895 34.3276Z" fill="#A62C18"/>
<path d="M26.4134 32.6865H11.9432C11.144 32.6865 10.4962 32.0387 10.4962 31.2396V14.5988C10.4962 9.80386 14.3833 5.91671 19.1784 5.91671C23.9733 5.91671 27.8605 9.80379 27.8605 14.5988V31.2396C27.8604 32.0388 27.2126 32.6865 26.4134 32.6865Z" fill="#FE5A3A"/>
<path d="M21.6462 11.0051C21.3876 11.97 20.3958 12.5426 19.4309 12.2841C18.466 12.0255 17.8934 11.0337 18.1519 10.0688C18.4105 9.10394 19.4023 8.53125 20.3672 8.78984C21.3321 9.04836 21.9047 10.0401 21.6462 11.0051Z" fill="#A62C18"/>
<path d="M23.928 26.5896H14.4287C13.9795 26.5896 13.6154 26.2255 13.6154 25.7763V16.8875C13.6154 16.4383 13.9795 16.0742 14.4287 16.0742H23.928C24.3772 16.0742 24.7413 16.4383 24.7413 16.8875V25.7763C24.7413 26.2255 24.3771 26.5896 23.928 26.5896Z" fill="#DBDBDB"/>
<path d="M23.7901 6.45378L24.2175 4.86448C24.43 4.07392 24.3216 3.24789 23.9121 2.53854C23.5011 1.82667 22.8363 1.31747 22.0405 1.10503C20.4016 0.667216 18.7105 1.64086 18.2711 3.27492L17.6585 5.55265C13.416 6.38498 10.2056 10.1319 10.2056 14.6148V30.1924L4.89666 27.7257C4.67486 27.6227 4.50679 27.4398 4.42345 27.2108C4.34058 26.983 4.35153 26.7367 4.45433 26.5171L9.23477 16.3021C9.36048 16.0337 9.24467 15.714 8.97606 15.5883C8.70744 15.4626 8.38796 15.5784 8.26226 15.8471L3.48181 26.062C3.25729 26.5418 3.23339 27.0803 3.41454 27.578C3.59616 28.077 3.96186 28.4752 4.4443 28.6994L10.2106 31.3787C10.2833 32.4084 11.1442 33.2239 12.1921 33.2239H14.1504L17.6058 34.8149C17.8766 34.9407 18.1616 35.0002 18.4424 35.0002C19.1918 35.0002 19.911 34.5761 20.2482 33.8557L20.5439 33.2239H26.7196C27.8149 33.2239 28.706 32.3328 28.706 31.2375V14.6148C28.7058 11.082 26.7117 8.00622 23.7901 6.45378ZM19.3079 3.55369C19.5939 2.49046 20.6956 1.85721 21.7635 2.14236C22.2819 2.28082 22.7147 2.61212 22.9822 3.07543C23.2481 3.53609 23.3186 4.07246 23.1806 4.58578L22.8001 6.00076C21.7669 5.6002 20.6441 5.38032 19.4713 5.38032H19.4401C19.2287 5.38032 19.0188 5.3875 18.811 5.40151L19.3079 3.55369ZM19.2756 33.4004C19.0623 33.8561 18.5162 34.0538 18.0565 33.8403L16.7175 33.2238H19.3583L19.2756 33.4004ZM27.6321 31.2374C27.6321 31.7407 27.2227 32.1502 26.7194 32.1502H14.28C14.2721 32.15 14.2643 32.15 14.2565 32.1502H12.192C11.6887 32.1502 11.2793 31.7407 11.2793 31.2374V31.046C11.2794 31.0381 11.2794 31.0302 11.2793 31.0224V14.6148C11.2793 10.8397 13.8558 7.65507 17.3427 6.72717L17.1435 7.46813C16.9309 8.2587 17.0394 9.08472 17.4489 9.79407C17.4936 9.8715 17.5414 9.94661 17.5919 10.0192C17.4871 10.5695 17.582 11.133 17.8651 11.6235C18.1792 12.1676 18.6872 12.5566 19.2952 12.7189C20.5477 13.0532 21.8396 12.3094 22.1753 11.0606C22.3379 10.4563 22.255 9.82495 21.9419 9.28275C21.6278 8.73868 21.1199 8.34967 20.5118 8.18731C19.6511 7.95768 18.7718 8.23705 18.1969 8.83962C18.0894 8.48727 18.0823 8.11128 18.1803 7.74684L18.5139 6.50617C18.8179 6.47178 19.1269 6.45398 19.44 6.45398H19.4712C23.9711 6.45398 27.6321 10.1149 27.6321 14.6148V31.2374H27.6321ZM19.3205 11.2275C19.8495 11.3688 20.4024 11.3634 20.9206 11.2239C20.6153 11.6218 20.0877 11.8192 19.5723 11.6815C19.2416 11.5933 18.9656 11.3819 18.7951 11.0865C18.782 11.0639 18.7697 11.041 18.7581 11.0179C18.9363 11.1048 19.1244 11.1751 19.3205 11.2275ZM18.8167 9.78305C19.1061 9.31874 19.6778 9.07589 20.2349 9.22451C20.5656 9.31276 20.8416 9.52413 21.0122 9.81951C21.0462 9.87848 21.0753 9.9395 21.0992 10.0018C20.6461 10.2543 20.1051 10.3255 19.5974 10.1901C19.3052 10.1121 19.0402 9.97277 18.8167 9.78305ZM24.2239 15.5377H14.6876C13.9423 15.5377 13.336 16.1441 13.336 16.8893V25.7753C13.336 26.5205 13.9424 27.1269 14.6876 27.1269H24.2239C24.9692 27.1269 25.5755 26.5205 25.5755 25.7753V16.8893C25.5755 16.144 24.9691 15.5377 24.2239 15.5377ZM24.5017 25.7752C24.5017 25.9285 24.377 26.0531 24.2239 26.0531H14.6876C14.5343 26.0531 14.4097 25.9284 14.4097 25.7752V16.8892C14.4097 16.736 14.5344 16.6114 14.6876 16.6114H24.2239C24.3772 16.6114 24.5017 16.736 24.5017 16.8892V25.7752ZM22.5339 18.8C22.5339 19.0966 22.2935 19.3368 21.9971 19.3368H16.9143C16.6178 19.3368 16.3775 19.0965 16.3775 18.8C16.3775 18.5035 16.6179 18.2632 16.9143 18.2632H21.9971C22.2935 18.2631 22.5339 18.5034 22.5339 18.8ZM22.5339 23.8645C22.5339 24.1611 22.2935 24.4014 21.9971 24.4014H20.5449C20.2484 24.4014 20.008 24.161 20.008 23.8645C20.008 23.568 20.2484 23.3277 20.5449 23.3277H21.9971C22.2935 23.3276 22.5339 23.568 22.5339 23.8645ZM22.5339 20.9704C22.5339 21.267 22.2935 21.5073 21.9971 21.5073H16.9143C16.6178 21.5073 16.3775 21.2669 16.3775 20.9704C16.3775 20.6739 16.6179 20.4336 16.9143 20.4336H21.9971C22.2935 20.4336 22.5339 20.6739 22.5339 20.9704Z" fill="black"/>
</g>
</g>
<defs>
<clipPath id="clip0_1_8">
<rect width="35" height="35" fill="white"/>
</clipPath>
<clipPath id="clip1_1_8">
<rect width="34" height="34" fill="white" transform="translate(-1 1)"/>
</clipPath>
</defs>
</svg>
