<svg width="20" height="21" viewBox="0 0 20 21" fill="none" xmlns="http://www.w3.org/2000/svg">
<path d="M13.3333 7.07752V13.123C13.3333 16.1146 10.9082 18.5397 7.91667 18.5397C4.92512 18.5397 2.5 16.1146 2.5 13.123C2.5 10.1315 4.92512 7.70638 7.91667 7.70638C8.34692 7.70638 8.76542 7.75654 9.16667 7.85132V10.487C8.78783 10.307 8.364 10.2064 7.91667 10.2064C6.30583 10.2064 5 11.5122 5 13.123C5 14.7339 6.30583 16.0397 7.91667 16.0397C9.5275 16.0397 10.8333 14.7339 10.8333 13.123V1.87305H13.3333C13.3333 4.17423 15.1988 6.03971 17.5 6.03971V8.53971C15.9234 8.53971 14.4747 7.99245 13.3333 7.07752Z" fill="white"/>
</svg>
