<svg width="35" height="35" viewBox="0 0 35 35" fill="none" xmlns="http://www.w3.org/2000/svg">
<g clip-path="url(#clip0_1_3)">
<rect width="35" height="35" fill="white"/>
<g clip-path="url(#clip1_1_3)">
<path fill-rule="evenodd" clip-rule="evenodd" d="M26.041 33.9844H9.95914C9.18075 33.9844 8.54977 33.3534 8.54977 32.575V3.42497C8.54977 2.64659 9.18078 2.01561 9.95914 2.01561L26.0409 2.01558C26.8192 2.01558 27.4502 2.64659 27.4502 3.42495L27.4502 32.575C27.4502 33.3534 26.8192 33.9844 26.041 33.9844Z" fill="#222025"/>
<path d="M26.5012 4.62384H9.49914V29.3876H26.5012V4.62384Z" fill="#E74C3C"/>
<path d="M18.0001 32.9327C18.6887 32.9327 19.2469 32.3745 19.2469 31.686C19.2469 30.9974 18.6887 30.4393 18.0001 30.4393C17.3116 30.4393 16.7534 30.9974 16.7534 31.686C16.7534 32.3745 17.3116 32.9327 18.0001 32.9327Z" fill="#2D2D2D"/>
<path d="M15.0103 3.63149C15.1825 3.63149 15.3221 3.49192 15.3221 3.31975C15.3221 3.14759 15.1825 3.00802 15.0103 3.00802C14.8382 3.00802 14.6986 3.14759 14.6986 3.31975C14.6986 3.49192 14.8382 3.63149 15.0103 3.63149Z" fill="#2D2D2D"/>
<path fill-rule="evenodd" clip-rule="evenodd" d="M21.0193 3.63145H16.7871C16.6311 3.63145 16.5048 3.50513 16.5048 3.34915V3.33025C16.5048 3.17426 16.6311 3.04795 16.7871 3.04795H21.0191C21.1751 3.04795 21.3014 3.17426 21.3014 3.33025V3.34915C21.3016 3.5049 21.1751 3.63145 21.0193 3.63145Z" fill="#2D2D2D"/>
<path fill-rule="evenodd" clip-rule="evenodd" d="M22.1133 15.6896C22.1418 15.5856 22.1575 15.4761 22.1575 15.3628C22.1575 14.685 21.6082 14.1356 20.9303 14.1356C20.7733 14.1356 20.6233 14.1655 20.4854 14.2192C20.1915 13.2161 19.2646 12.4835 18.1666 12.4835C17.1334 12.4835 16.2521 13.1319 15.9064 14.0439C15.7677 14.008 15.6222 13.9889 15.4722 13.9889C14.517 13.9889 13.7427 14.7632 13.7427 15.7184C13.7427 15.7231 13.7429 15.7276 13.7432 15.7324C12.9463 16.0024 12.3727 16.7567 12.3727 17.6449C12.3727 18.7599 13.2765 19.6638 14.3915 19.6638H21.6086C22.7237 19.6638 23.6275 18.7599 23.6275 17.6449C23.6275 16.7041 22.984 15.9137 22.1133 15.6896Z" fill="white"/>
<path d="M15.2791 24.4644C15.7228 24.4644 16.0824 24.1048 16.0824 23.6611C16.0824 23.2175 15.7228 22.8578 15.2791 22.8578C14.8355 22.8578 14.4758 23.2175 14.4758 23.6611C14.4758 24.1048 14.8355 24.4644 15.2791 24.4644Z" fill="white"/>
<path d="M18.0001 24.4644C18.4438 24.4644 18.8034 24.1048 18.8034 23.6611C18.8034 23.2175 18.4438 22.8578 18.0001 22.8578C17.5565 22.8578 17.1968 23.2175 17.1968 23.6611C17.1968 24.1048 17.5565 24.4644 18.0001 24.4644Z" fill="white"/>
<path d="M20.7211 24.4644C21.1647 24.4644 21.5244 24.1048 21.5244 23.6611C21.5244 23.2175 21.1647 22.8578 20.7211 22.8578C20.2774 22.8578 19.9178 23.2175 19.9178 23.6611C19.9178 24.1048 20.2774 24.4644 20.7211 24.4644Z" fill="white"/>
<path d="M18.6689 15.177H17.3315V17.4373H18.6689V15.177Z" fill="#1B75BC"/>
<path fill-rule="evenodd" clip-rule="evenodd" d="M18.0001 14.1204L16.8563 15.6671H19.1439L18.0001 14.1204Z" fill="#1B75BC"/>
<path d="M20.2192 17.8485H15.781V18.5086H20.2192V17.8485Z" fill="#1B75BC"/>
<path d="M15.7809 17.1956V18.5085H16.4409V17.1956H15.7809Z" fill="#1B75BC"/>
<path d="M19.5593 17.1955V18.5084H20.2193V17.1955H19.5593Z" fill="#1B75BC"/>
</g>
</g>
<defs>
<clipPath id="clip0_1_3">
<rect width="35" height="35" fill="white"/>
</clipPath>
<clipPath id="clip1_1_3">
<rect width="44" height="44" fill="white" transform="translate(-4 -4)"/>
</clipPath>
</defs>
</svg>
